{"title":"Singin' in the Rain *1952* [1080p.DTS.AC3.BluRay.x264]","uid":9535179,"size":16320076699,"categoryP":"video","categoryS":"hd___movies","magnet":"?xt=urn:btih:9ec61f861bdb185b11e7a756a0046c059b831983&amp;dn=Singin%27+in+the+Rain+%2A1952%2A+%5B1080p.DTS.AC3.BluRay.x264%5D&amp;tr=udp%3A%2F%2Ftracker.openbittorrent.com%3A80&amp;tr=udp%3A%2F%2Fopen.demonii.com%3A1337&amp;tr=udp%3A%2F%2Ftracker.coppersurfer.tk%3A6969&amp;tr=udp%3A%2F%2Fexodus.desync.com%3A6969","seeders":1,"leechers":4,"uploader":"gixer1000k9","files":-1,"time":1390917512,"description":"In 1927, Don Lockwood and Lina Lamont are a famous on-screen romantic pair. Lina, however, mistakes the on-screen romance for real love. Don has worked hard to get where he is today, with his former partner Cosmo. When Don and Lina's latest film is transformed into a musical, Don has the perfect voice for the songs. But Lina - well, even with the best efforts of a diction coach, they still decide to dub over her voice. Kathy Selden is brought in, an aspiring actress, and while she is working on the movie, Don falls in love with her. Will Kathy continue to &quot;aspire&quot;, or will she get the break she deserves ?\n\n &lt;a href=&quot;\nhttp://i.imgur.com/eqA17BC.jpg&quot; rel=&quot;nofollow&quot; target=&quot;_NEW&quot;&gt;\nhttp://i.imgur.com/eqA17BC.jpg&lt;/a&gt;\n &lt;a href=&quot;\nhttp://i.imgur.com/FTQbuZ5.jpg&quot; rel=&quot;nofollow&quot; target=&quot;_NEW&quot;&gt;\nhttp://i.imgur.com/FTQbuZ5.jpg&lt;/a&gt;\n &lt;a href=&quot;\nhttp://i.imgur.com/IAiiK5H.jpg&quot; rel=&quot;nofollow&quot; target=&quot;_NEW&quot;&gt;\nhttp://i.imgur.com/IAiiK5H.jpg&lt;/a&gt;\n &lt;a href=&quot;\nhttp://i.imgur.com/kzrIu43.jpg&quot; rel=&quot;nofollow&quot; target=&quot;_NEW&quot;&gt;\nhttp://i.imgur.com/kzrIu43.jpg&lt;/a&gt;\n &lt;a href=&quot;\nhttp://i.imgur.com/qTczKF4.jpg&quot; rel=&quot;nofollow&quot; target=&quot;_NEW&quot;&gt;\nhttp://i.imgur.com/qTczKF4.jpg&lt;/a&gt;\n\n\nTechnical Data:\n\n Format : Matroska\n Format version : Version 2\n File size : 15.2 GiB\n Duration : 1h 42mn\n Overall bit rate : 21.2 Mbps\n Movie name : Singinig In The Rain (1952) (gixerk9)\n Encoded date : UTC 2014-01-26 16:20:49\n Writing application : mkvmerge v5.7.0 ('The Whirlwind' built on Jul 8 2012 20:08:51\n Writing library : libebml v1.2.3 + libmatroska v1.3.0\n\n Video\n ID : 1\n Format : AVC\n Format/Info : Advanced Video Codec\n Format profile : &lt;a class=&quot;__cf_email__&quot; href=&quot;/cdn-cgi/l/email-protection&quot; data-cfemail=&quot;94dcfdf3fcd4d8a0baa5&quot;&gt;[email&amp;#160;protected]&lt;/a&gt;&lt;script cf-hash='f9e31' type=&quot;text/javascript&quot;&gt;\n/* &lt;![CDATA[ */!function(){try{var t=&quot;currentScript&quot;in document?document.currentScript:function(){for(var t=document.getElementsByTagName(&quot;script&quot;),e=t.length;e--;)if(t[e].getAttribute(&quot;cf-hash&quot;))return t[e]}();if(t&amp;&amp;t.previousSibling){var e,r,n,i,c=t.previousSibling,a=c.getAttribute(&quot;data-cfemail&quot;);if(a){for(e=&quot;&quot;,r=parseInt(a.substr(0,2),16),n=2;a.length-n;n+=2)i=parseInt(a.substr(n,2),16)^r,e+=String.fromCharCode(i);e=document.createTextNode(e),c.parentNode.replaceChild(e,c)}}}catch(u){}}();/* ]]&gt; */&lt;/script&gt;\n Format settings, CABAC : Yes\n Format settings, ReFrames : 4 frames\n Codec ID : V_MPEG4/ISO/AVC\n Duration : 1h 42mn\n Bit rate : 19.2 Mbps\n Width : 1 920 pixels\n Height : 1 080 pixels\n Display aspect ratio : 16:9\n Frame rate mode : Constant\n Frame rate : 23.976 fps\n Color space : YUV\n Chroma subsampling : 4:2:0\n Bit depth : 8 bits\n Scan type : Progressive\n Bits/(Pixel*Frame) : 0.387\n Stream size : 13.5 GiB (89%)\n Writing library : x264 core 140 r2345\n Default : Yes\n Forced : No\n\n Audio #1\n ID : 2\n Format : AC-3\n Format/Info : Audio Coding 3\n Mode extension : CM (complete main)\n Format settings, Endianness : Big\n Codec ID : A_AC3\n Duration : 1h 42mn\n Bit rate mode : Constant\n Bit rate : 384 Kbps\n Channel count : 6 channels\n Channel positions : Front: L C R, Side: L R, LFE\n Sampling rate : 48.0 KHz\n Bit depth : 16 bits\n Compression mode : Lossy\n Delay relative to video : -42ms\n Stream size : 282 MiB (2%)\n Title : Lektor PL\n Language : Polish\n Default : Yes\n Forced : No\n\n Audio #2\n ID : 3\n Format : DTS\n Format/Info : Digital Theater Systems\n Mode : 16\n Format settings, Endianness : Big\n Codec ID : A_DTS\n Duration : 1h 42mn\n Bit rate mode : Constant\n Bit rate : 1 509 Kbps\n Channel count : 6 channels\n Channel positions : Front: L C R, Side: L R, LFE\n Sampling rate : 48.0 KHz\n Bit depth : 24 bits\n Compression mode : Lossy\n Delay relative to video : -42ms\n Stream size : 1.08 GiB (7%)\n Title : DTS\n Language : English\n Default : No\n Forced : No\n\n Text\n ID : 4\n Format : UTF-8\n Codec ID : S_TEXT/UTF8\n Codec ID/Info : UTF-8 Plain Text\n Title : Napisy PL\n Language : Polish\n Default : Yes\n Forced : No","torrent":{"xt":"urn:btih:9ec61f861bdb185b11e7a756a0046c059b831983","amp;dn":"Singin%27+in+the+Rain+%2A1952%2A+%5B1080p.DTS.AC3.BluRay.x264%5D","amp;tr":["udp%3A%2F%2Ftracker.openbittorrent.com%3A80","udp%3A%2F%2Fopen.demonii.com%3A1337","udp%3A%2F%2Ftracker.coppersurfer.tk%3A6969","udp%3A%2F%2Fexodus.desync.com%3A6969"],"infoHash":"9ec61f861bdb185b11e7a756a0046c059b831983","infoHashBuffer":{"type":"Buffer","data":[158,198,31,134,27,219,24,91,17,231,167,86,160,4,108,5,155,131,25,131]},"announce":[],"urlList":[]}}